<svg width="100%" height="100%" style="overflow:visible;" preserveAspectRatio="none" viewBox="0 0 65 65" fill="none" xmlns="http://www.w3.org/2000/svg">
<path d="M56.875 62.9688H11.1719C10.9025 62.9688 10.6442 62.8617 10.4537 62.6713C10.2633 62.4808 10.1562 62.2225 10.1562 61.9531V6.09375C10.1562 5.82439 10.2633 5.56606 10.4537 5.37559C10.6442 5.18513 10.9025 5.07812 11.1719 5.07813H56.875C57.1444 5.07813 57.4027 5.18513 57.5932 5.37559C57.7836 5.56606 57.8906 5.82439 57.8906 6.09375V61.9531C57.8906 62.2225 57.7836 62.4808 57.5932 62.6713C57.4027 62.8617 57.1444 62.9688 56.875 62.9688Z" fill="#4795C2"/>
<path d="M57.8906 59.9219C46.0388 59.9219 34.6723 55.2137 26.2918 46.8332C17.9113 38.4527 13.2031 27.0862 13.2031 15.2344V5.07812H11.1719C10.9025 5.07812 10.6442 5.18513 10.4537 5.37559C10.2633 5.56606 10.1562 5.82439 10.1562 6.09375V61.9531C10.1562 62.2225 10.2633 62.4808 10.4537 62.6713C10.6442 62.8617 10.9025 62.9688 11.1719 62.9688H56.875C57.1444 62.9688 57.4027 62.8617 57.5932 62.6713C57.7836 62.4808 57.8906 62.2225 57.8906 61.9531V59.9219Z" fill="#215273"/>
<mask id="path-3-inside-1_104_786" fill="white">
<path d="M50.7812 56.875H6.09375C5.82439 56.875 5.56606 56.768 5.37559 56.5775C5.18513 56.3871 5.07812 56.1287 5.07812 55.8594V3.04688C5.07812 2.77751 5.18513 2.51919 5.37559 2.32872C5.56606 2.13825 5.82439 2.03125 6.09375 2.03125H44.6875C44.9568 2.03131 45.2151 2.13835 45.4055 2.32883L51.4993 8.42258C51.6898 8.613 51.7968 8.87129 51.7969 9.14062V55.8594C51.7969 56.1287 51.6899 56.3871 51.4994 56.5775C51.3089 56.768 51.0506 56.875 50.7812 56.875Z"/>
</mask>
<path d="M50.7812 56.875H6.09375C5.82439 56.875 5.56606 56.768 5.37559 56.5775C5.18513 56.3871 5.07812 56.1287 5.07812 55.8594V3.04688C5.07812 2.77751 5.18513 2.51919 5.37559 2.32872C5.56606 2.13825 5.82439 2.03125 6.09375 2.03125H44.6875C44.9568 2.03131 45.2151 2.13835 45.4055 2.32883L51.4993 8.42258C51.6898 8.613 51.7968 8.87129 51.7969 9.14062V55.8594C51.7969 56.1287 51.6899 56.3871 51.4994 56.5775C51.3089 56.768 51.0506 56.875 50.7812 56.875Z" fill="#FDFEFF" stroke="black" stroke-opacity="0.25" stroke-width="2" mask="url(#path-3-inside-1_104_786)"/>
<path d="M41.6569 16.25H15.2181V18.2812H41.6569V16.25Z" fill="#215273"/>
<path d="M41.0312 24.375H15.1937V26.4062H41.0312V24.375Z" fill="#215273"/>
<path d="M32.5 32.5H15.2181V34.5312H32.5V32.5Z" fill="#215273"/>
<path d="M27.4219 40.625H15.2181V42.6562H27.4219V40.625Z" fill="#215273"/>
<path d="M51.7969 13.2031H40.625V2.03125H45.108L51.7969 8.72016V13.2031Z" fill="#D6E8F2"/>
<path d="M57.4702 20.8203C57.1921 20.8201 56.9166 20.8748 56.6597 20.9812C56.4028 21.0877 56.1695 21.2439 55.9731 21.4409L55.2246 22.1894L52.978 24.4359L51.7969 25.6171V34.6023L57.4702 28.9291L57.8906 28.5086V20.8813C57.7529 20.8468 57.612 20.8264 57.4702 20.8203Z" fill="#004787"/>
<path d="M40.2482 40.1609L39.7577 42.1485L41.7453 41.659L45.4899 40.9095L51.7969 34.6024V25.6172L40.9968 36.4173L40.2482 40.1609Z" fill="#DFEAEF"/>
<path d="M58.9682 25.3996L54.4751 20.9064L55.9731 19.4094C56.1697 19.2126 56.4032 19.0565 56.6601 18.9499C56.9171 18.8434 57.1925 18.7886 57.4707 18.7886C57.7488 18.7886 58.0243 18.8434 58.2812 18.9499C58.5382 19.0565 58.7716 19.2126 58.9682 19.4094L60.4663 20.9064C60.8633 21.3039 61.0863 21.8427 61.0863 22.4045C61.0863 22.9663 60.8633 23.5051 60.4663 23.9025L58.9682 25.3996Z" fill="#4795C2"/>
<path d="M59.7187 20.1579L58.9702 19.4094C58.7736 19.2126 58.5402 19.0565 58.2832 18.9499C58.0262 18.8434 57.7508 18.7886 57.4726 18.7886C57.1945 18.7886 56.919 18.8434 56.6621 18.9499C56.4051 19.0565 56.1717 19.2126 55.9751 19.4094L54.4771 20.9064L55.2266 21.656L56.7236 20.1579C57.1209 19.7609 57.6595 19.5379 58.2212 19.5379C58.7828 19.5379 59.3214 19.7609 59.7187 20.1579Z" fill="#357BA4"/>
<path d="M52.9781 22.4048L40.9971 34.3857L45.4899 38.8785L57.4708 26.8975L52.9781 22.4048Z" fill="#4795C2"/>
<path d="M54.4761 23.9028L42.4951 35.8838L43.9925 37.3811L55.9735 25.4002L54.4761 23.9028Z" fill="#7EC2DD"/>
<path d="M52.9781 22.4048L40.9971 34.3857L42.4944 35.8831L54.4754 23.9021L52.9781 22.4048Z" fill="#4795C2"/>
<path d="M55.2245 20.1584L52.9781 22.4048L57.4709 26.8976L59.7173 24.6512L55.2245 20.1584Z" fill="#DFEAEF"/>
<path d="M55.9731 23.9028C55.7763 23.7062 55.6201 23.4726 55.5136 23.2156C55.407 22.9585 55.3522 22.683 55.3522 22.4048C55.3522 22.1265 55.407 21.851 55.5136 21.594C55.6201 21.3369 55.7763 21.1034 55.9731 20.9067L55.2246 20.1582L52.978 22.4048L57.4701 26.8979L58.2197 26.1484L55.9731 23.9028Z" fill="#C3D6DD"/>
<path d="M41.7452 39.6279L40.2482 38.1298L40.9967 34.3862L45.4898 38.8783L41.7452 39.6279Z" fill="#F7D694"/>
<path d="M40.2482 38.1294L39.7577 40.117L41.7453 39.6274L40.2482 38.1294Z" fill="#215273"/>
</svg>
